<?xml version="1.0" encoding="utf-8"?>
<!-- Generator: Adobe Illustrator 17.0.2, SVG Export Plug-In . SVG Version: 6.00 Build 0)  -->
<!DOCTYPE svg PUBLIC "-//W3C//DTD SVG 1.1//EN" "http://www.w3.org/Graphics/SVG/1.1/DTD/svg11.dtd">
<svg version="1.1" id="Layer_1" xmlns="http://www.w3.org/2000/svg" xmlns:xlink="http://www.w3.org/1999/xlink" x="0px" y="0px"
	 width="549.168px" height="127.476px" viewBox="0 0 549.168 127.476" enable-background="new 0 0 549.168 127.476"
	 xml:space="preserve">
<g>
	<path d="M75.571,0l46.82,125.196H93.81l-9.47-27.881H37.524l-9.82,27.881H0L47.344,0H75.571z M77.151,76.8l-15.78-45.942H61.02
		L44.713,76.8H77.151z"/>
	<path d="M149.919,34.542v16.832h0.351c1.169-2.805,2.744-5.406,4.735-7.799c1.986-2.398,4.267-4.445,6.838-6.137
		c2.571-1.697,5.319-3.012,8.241-3.947c2.921-0.935,5.964-1.402,9.119-1.402c1.636,0,3.445,0.294,5.436,0.874v23.146
		c-1.173-0.234-2.575-0.437-4.211-0.615c-1.636-0.173-3.216-0.26-4.73-0.26c-4.562,0-8.418,0.762-11.573,2.277
		c-3.159,1.523-5.7,3.597-7.63,6.228c-1.926,2.627-3.302,5.696-4.12,9.206c-0.818,3.506-1.225,7.306-1.225,11.396v40.856h-24.899
		V34.542H149.919z"/>
	<path d="M267.398,103.453c3.739,3.623,9.115,5.436,16.13,5.436c5.025,0,9.348-1.255,12.975-3.77
		c3.623-2.515,5.843-5.172,6.661-7.981h21.921c-3.51,10.872-8.885,18.649-16.135,23.324c-7.249,4.674-16.014,7.011-26.301,7.011
		c-7.132,0-13.56-1.138-19.286-3.419c-5.73-2.281-10.582-5.523-14.555-9.729c-3.973-4.211-7.042-9.236-9.206-15.083
		c-2.164-5.843-3.242-12.274-3.242-19.286c0-6.778,1.108-13.092,3.328-18.939c2.22-5.843,5.375-10.898,9.47-15.165
		c4.09-4.267,8.972-7.626,14.642-10.084c5.67-2.454,11.95-3.679,18.848-3.679c7.717,0,14.438,1.489,20.164,4.471
		c5.726,2.982,10.435,6.985,14.118,12.01c3.679,5.029,6.34,10.755,7.976,17.182c1.636,6.431,2.22,13.153,1.753,20.164h-65.4
		C261.611,93.984,263.654,99.831,267.398,103.453 M295.539,55.759c-2.982-3.272-7.514-4.908-13.59-4.908
		c-3.973,0-7.275,0.671-9.907,2.017c-2.631,1.342-4.735,3.008-6.31,4.995c-1.58,1.991-2.692,4.094-3.333,6.315
		c-0.645,2.22-1.026,4.207-1.138,5.96h40.501C300.594,63.826,298.521,59.035,295.539,55.759"/>
	<path d="M360.677,34.542v16.832h0.351c1.169-2.805,2.744-5.406,4.735-7.799c1.987-2.398,4.263-4.445,6.838-6.137
		c2.571-1.697,5.319-3.012,8.241-3.947c2.921-0.935,5.964-1.402,9.119-1.402c1.636,0,3.445,0.294,5.436,0.874v23.146
		c-1.173-0.234-2.575-0.437-4.211-0.615c-1.636-0.173-3.216-0.26-4.73-0.26c-4.562,0-8.418,0.762-11.573,2.277
		c-3.159,1.523-5.7,3.597-7.63,6.228c-1.926,2.627-3.302,5.696-4.12,9.206c-0.818,3.506-1.225,7.306-1.225,11.396v40.856h-24.899
		V34.542H360.677z"/>
	<path d="M424.5,34.542v16.832h0.351c1.169-2.805,2.744-5.406,4.735-7.799c1.986-2.398,4.263-4.445,6.838-6.137
		c2.571-1.697,5.319-3.012,8.241-3.947c2.921-0.935,5.964-1.402,9.119-1.402c1.636,0,3.445,0.294,5.436,0.874v23.146
		c-1.173-0.234-2.575-0.437-4.211-0.615c-1.636-0.173-3.216-0.26-4.73-0.26c-4.562,0-8.418,0.762-11.573,2.277
		c-3.159,1.523-5.7,3.597-7.63,6.228c-1.926,2.627-3.302,5.696-4.12,9.206c-0.818,3.506-1.225,7.306-1.225,11.396v40.856H400.83
		V34.542H424.5z"/>
	<path d="M463.599,62.422c0.355-5.843,1.813-10.694,4.384-14.555c2.571-3.856,5.847-6.951,9.82-9.292
		c3.973-2.337,8.444-4.003,13.412-4.995c4.969-0.995,9.967-1.493,14.992-1.493c4.562,0,9.175,0.325,13.854,0.965
		c4.674,0.645,8.942,1.9,12.798,3.77c3.861,1.87,7.016,4.471,9.47,7.803c2.454,3.333,3.683,7.743,3.683,13.239v47.167
		c0,4.094,0.234,8.007,0.701,11.746c0.467,3.744,1.285,6.548,2.454,8.418h-25.25c-0.467-1.402-0.848-2.835-1.138-4.298
		c-0.294-1.459-0.498-2.947-0.615-4.471c-3.973,4.094-8.652,6.959-14.027,8.591c-5.38,1.636-10.872,2.458-16.481,2.458
		c-4.328,0-8.362-0.528-12.101-1.58c-3.739-1.052-7.011-2.688-9.82-4.908c-2.805-2.22-4.995-5.025-6.574-8.418
		c-1.575-3.389-2.367-7.423-2.367-12.097c0-5.146,0.904-9.383,2.718-12.716c1.813-3.328,4.151-5.99,7.016-7.977
		c2.861-1.987,6.137-3.475,9.82-4.471c3.679-0.991,7.388-1.783,11.132-2.367c3.739-0.584,7.422-1.052,11.049-1.402
		c3.618-0.351,6.838-0.879,9.643-1.58c2.804-0.701,5.025-1.723,6.661-3.069c1.636-1.342,2.398-3.302,2.281-5.873
		c0-2.688-0.437-4.821-1.316-6.401c-0.874-1.575-2.047-2.805-3.506-3.683c-1.463-0.874-3.155-1.459-5.085-1.753
		c-1.93-0.29-4.003-0.437-6.224-0.437c-4.912,0-8.769,1.052-11.573,3.155c-2.805,2.103-4.445,5.613-4.912,10.521H463.599z
		 M521.114,80.833c-1.052,0.935-2.367,1.666-3.947,2.19c-1.575,0.528-3.272,0.965-5.081,1.316c-1.813,0.351-3.713,0.645-5.7,0.879
		c-1.991,0.234-3.977,0.524-5.964,0.874c-1.87,0.351-3.709,0.822-5.523,1.407c-1.813,0.584-3.393,1.372-4.735,2.363
		c-1.342,0.995-2.428,2.255-3.242,3.774c-0.818,1.519-1.229,3.449-1.229,5.782c0,2.225,0.411,4.094,1.229,5.613
		c0.814,1.519,1.926,2.718,3.333,3.592c1.402,0.879,3.038,1.493,4.908,1.844c1.87,0.351,3.796,0.524,5.786,0.524
		c4.908,0,8.708-0.814,11.396-2.454c2.688-1.636,4.674-3.592,5.964-5.873c1.285-2.281,2.073-4.588,2.367-6.925
		c0.29-2.337,0.437-4.211,0.437-5.613V80.833z"/>
	<path d="M233.205,51.2V34.542h-18.234V7.366h-24.899v19.671v7.505V51.2v53.481c0,4.557,0.757,8.241,2.277,11.045
		c1.519,2.805,3.597,4.969,6.228,6.488c2.627,1.519,5.665,2.545,9.115,3.069c3.449,0.528,7.102,0.788,10.959,0.788
		c2.454,0,4.968-0.061,7.539-0.173c2.571-0.117,4.912-0.351,7.016-0.701v-19.29c-1.169,0.238-2.398,0.411-3.683,0.528
		s-2.627,0.173-4.034,0.173c-4.207,0-7.011-0.701-8.414-2.103c-1.402-1.402-2.103-4.207-2.103-8.414V51.2H233.205z"/>
</g>
</svg>
